# xmcd
# 
# Track frame offsets:
#     150
#     11965
#     23370
#     41910
#     59425
#     81217
#     97212
#     110792
#     123090
#     137355
#     160937
#     178992
#     205342
# 
# Disc length: 2911
# 
# Revision: 2
# Processed by: cddbd v1.5.2PL0 Copyright (c) Steve Scherf et al.
# Submitted via: fre:ac v1.0.17
# 
DISCID=b50b5d0d
DTITLE=SADS - SAD BLOOD ROCK'N'ROLL
DYEAR=1999
DGENRE=Rock and Roll
TTITLE0=LIAR
TTITLE1=TRIPPER
TTITLE2=Private thirsty night
TTITLE3=HONEY HONEY
TTITLE4=Loveless Lover
TTITLE5=DISCOVER
TTITLE6=Mr.『YA』
TTITLE7=1968
TTITLE8=Teen Age
TTITLE9=TOKYO
TTITLE10=OUT OF SIGHT
TTITLE11=憂鬱という名の夢
TTITLE12=HAPPY
EXTD=
EXTT0=
EXTT1=
EXTT2=
EXTT3=
EXTT4=
EXTT5=
EXTT6=
EXTT7=
EXTT8=
EXTT9=
EXTT10=
EXTT11=
EXTT12=
PLAYORDER=
